# xmcd
#
# Track frame offsets:
#  150
#  19237
#  36375
#  53000
#  70127
#  86182
#  102712
#  120340
#  134092
#  151392
#  171345
#  187462
#  205862
#  219505
#  235880
#  248610
#  261695
#  279780
#  294187
#
# Disc length: 4122 seconds
#
# Revision: 5
# Processed by: cddbd v1.5.1PL0 Copyright (c) Steve Scherf et al.
# Submitted via: Collectorz.com_Music_Collector 6.9
#
DISCID=27101813
DTITLE=Various Artist - Country Gold [CD2]
DYEAR=1992
DGENRE=Country
TTITLE0=Alabama - There's no Way
TTITLE1=Conway Twitty - Crazy in Love
TTITLE2=Shenandoah - Next to You, Next to Me
TTITLE3=K.T. Oslin - Comenext Monday
TTITLE4=Paul Overstreet - Daddy's Come Around
TTITLE5=Steve Wariner - The Tips of my Fingers
TTITLE6=Collin Raye - Love Me
TTITLE7=Baillie and the Boys - Fool Such as I
TTITLE8=Earl thomas Conley - Love Out Loud
TTITLE9=Ronnie Milsap - Are You Lovin' me Like I'm Lovin' You
TTITLE10=Lorrie Morgan - Five Minutes
TTITLE11=Lionel Cartwright - Leap of Faith
TTITLE12=Brooks and Dunn - Brand New Man
TTITLE13=Forester Sisters - Love Will
TTITLE14=Lee Greenwood - Holdin a Good Hand
TTITLE15=The Oak Ridge boys - No Matter How High
TTITLE16=Pam Tillis - Maybe it Was Memphis
TTITLE17=Alan Jackson - I'd Love You All Over Again
TTITLE18=Joe Diffie - Home
EXTD=
EXTT0=
EXTT1=
EXTT2=
EXTT3=
EXTT4=
EXTT5=
EXTT6=
EXTT7=
EXTT8=
EXTT9=
EXTT10=
EXTT11=
EXTT12=
EXTT13=
EXTT14=
EXTT15=
EXTT16=
EXTT17=
EXTT18=
PLAYORDER=
